<?xml version="1.0" encoding="UTF-8"?>
<!DOCTYPE svg PUBLIC "-//W3C//DTD SVG 1.1//EN" "http://www.w3.org/Graphics/SVG/1.1/DTD/svg11.dtd">
<!-- Creator: CorelDRAW 2020 (64-Bit) -->
<svg xmlns="http://www.w3.org/2000/svg" xml:space="preserve" width="6.35mm" height="8.467mm" version="1.1" style="shape-rendering:geometricPrecision; text-rendering:geometricPrecision; image-rendering:optimizeQuality; fill-rule:evenodd; clip-rule:evenodd"
viewBox="0 0 635 846.7"
 xmlns:xlink="http://www.w3.org/1999/xlink"
 xmlns:xodm="http://www.corel.com/coreldraw/odm/2003">
 <defs>
  <style type="text/css">
   <![CDATA[
    .fil2 {fill:#00802B;fill-rule:nonzero}
    .fil0 {fill:#2BBA51;fill-rule:nonzero}
    .fil1 {fill:#9EFFD3;fill-rule:nonzero}
   ]]>
  </style>
 </defs>
 <g id="Слой_x0020_1">
  <metadata id="CorelCorpID_0Corel-Layer"/>
  <g id="_2964100130032">
   <path class="fil0" d="M313.27 0.02c0,0 317.5,353.83 317.5,529.17 0,175.34 -142.13,317.5 -317.5,317.5 -175.34,0 -317.5,-142.16 -317.5,-317.5l317.5 -529.17z"/>
   <path class="fil1" d="M445.4 423.35c-29.32,0 -53.08,23.76 -53.08,53.1 0,29.29 23.73,53.05 53.08,53.05 29.29,0 53.08,-23.73 53.08,-53.05 0,-29.34 -23.76,-53.1 -53.08,-53.1z"/>
   <path class="fil2" d="M339.73 820.23c-175.34,0 -317.5,-142.16 -317.5,-317.5 0,-145.44 218.28,-413.46 292.79,-500.75l-1.75 -1.96c0,0 -317.5,353.83 -317.5,529.17 0,175.34 142.16,317.5 317.5,317.5 94.4,0 178.96,-41.43 237.09,-106.87 -56.07,49.87 -129.67,80.41 -210.63,80.41z"/>
  </g>
 </g>
</svg>
