<svg width="512.001" height="372" xmlns="http://www.w3.org/2000/svg">

 <g>
  <title>background</title>
  <rect fill="none" id="canvas_background" height="374" width="514.001" y="-1" x="-1"/>
 </g>
 <g>
  <title>Layer 1</title>
  <path id="svg_1" fill="#E8E8E8" d="m218.522,0.744l-81.652,0c-7.393,0 -13.387,5.994 -13.387,13.387l0,105.213l108.427,0l0,-105.213c-0.001,-7.393 -5.994,-13.387 -13.388,-13.387z"/>
  <path id="svg_2" fill="#FF6361" d="m218.522,0.744l-81.652,0c-7.393,0 -13.387,5.994 -13.387,13.387l0,31.476l108.427,0l0,-31.476c-0.001,-7.393 -5.994,-13.387 -13.388,-13.387z"/>
  <path id="svg_3" opacity="0.15" d="m145.4,106.136c-3.138,0 -5.683,-2.544 -5.683,-5.683l0,-99.53c0,-0.06 0.008,-0.119 0.009,-0.179l-2.856,0c-7.393,0 -13.387,5.994 -13.387,13.387l0,105.213l108.427,0l0,-13.208l-86.51,0z"/>
  <path id="svg_4" fill="#E8E8E8" d="m435.45,119.344l-352.182,0c-9.099,0 -16.475,7.377 -16.475,16.475l0,79.747l385.133,0l0,-79.747c0,-9.098 -7.377,-16.475 -16.476,-16.475z"/>
  <path id="svg_5" fill="#7D868C" d="m294.22,144.435l-42.213,0c-6.015,0 -10.891,4.876 -10.891,10.891l0,60.241l63.994,0l0,-60.241c0.001,-6.015 -4.875,-10.891 -10.89,-10.891z"/>
  <g id="svg_6">
   <circle id="svg_7" fill="#333E48" r="8.37" cy="183.055" cx="284.107"/>
   <path id="svg_8" fill="#333E48" d="m451.926,144.435l-67.583,0c-4.829,0 -8.744,3.915 -8.744,8.744l0,28.555c0,4.829 3.915,8.744 8.744,8.744l67.583,0l0,-46.043l0,0z"/>
   <circle id="svg_9" fill="#333E48" r="23.021" cy="167.458" cx="146.497"/>
  </g>
  <path id="svg_10" fill="#FFFFFF" d="m146.503,198.867c-17.321,0 -31.412,-14.091 -31.412,-31.412c0,-17.32 14.091,-31.412 31.412,-31.412s31.412,14.091 31.412,31.412s-14.091,31.412 -31.412,31.412zm0,-46.041c-8.066,0 -14.629,6.562 -14.629,14.629c0,8.067 6.563,14.629 14.629,14.629c8.067,0 14.629,-6.563 14.629,-14.629c0,-8.067 -6.563,-14.629 -14.629,-14.629z"/>
  <path id="svg_11" opacity="0.15" d="m93.94,202.452c-4.179,0 -7.567,-3.388 -7.567,-7.567l0,-73.918c0,-0.549 0.036,-1.09 0.094,-1.623l-3.199,0c-9.099,0 -16.475,7.377 -16.475,16.475l0,79.747l385.133,0l0,-13.114l-357.986,0z"/>
  <path id="svg_12" fill="#E8E8E8" d="m371.848,371.257l-229.696,0c-77.956,0 -141.152,-63.196 -141.152,-141.152l0,0c0,-8.029 6.508,-14.539 14.539,-14.539l482.924,0c8.029,0 14.539,6.51 14.539,14.539l0,0c-0.002,77.956 -63.198,141.152 -141.154,141.152z"/>
  <path id="svg_13" fill="#FF6361" d="m498.461,215.567l-482.922,0c-8.029,0 -14.539,6.508 -14.539,14.538l0,0c0,10.77 1.212,21.256 3.496,31.335l505.007,0c2.285,-10.079 3.496,-20.565 3.496,-31.335l0,0c0.001,-8.03 -6.509,-14.538 -14.538,-14.538z"/>
  <path id="svg_14" opacity="0.15" d="m386.843,355.184l-229.695,0c-77.443,0 -140.308,-62.37 -141.133,-139.618l-0.477,0c-8.03,0 -14.539,6.51 -14.539,14.539l0,0c0,77.956 63.196,141.152 141.152,141.152l229.697,0c44.698,0 84.536,-20.782 110.399,-53.203c-25.123,23.054 -58.618,37.13 -95.404,37.13z"/>
  <circle id="svg_15" fill="#333E48" r="23.021" cy="310.84" cx="214.715"/>
  <path id="svg_16" fill="#FFFFFF" d="m214.714,342.25c-17.32,0 -31.412,-14.091 -31.412,-31.412c0,-17.321 14.091,-31.412 31.412,-31.412s31.412,14.091 31.412,31.412c0,17.321 -14.091,31.412 -31.412,31.412zm0,-46.041c-8.067,0 -14.629,6.563 -14.629,14.629c0,8.067 6.562,14.629 14.629,14.629c8.066,0 14.629,-6.562 14.629,-14.629c0,-8.066 -6.564,-14.629 -14.629,-14.629z"/>
  <circle id="svg_17" fill="#333E48" r="23.021" cy="310.84" cx="118.682"/>
  <path id="svg_18" fill="#FFFFFF" d="m118.687,342.25c-17.321,0 -31.412,-14.091 -31.412,-31.412c0,-17.321 14.091,-31.412 31.412,-31.412c17.32,0 31.412,14.091 31.412,31.412c0,17.321 -14.092,31.412 -31.412,31.412zm0,-46.041c-8.066,0 -14.629,6.563 -14.629,14.629c0,8.067 6.563,14.629 14.629,14.629s14.629,-6.562 14.629,-14.629c0,-8.066 -6.563,-14.629 -14.629,-14.629z"/>
  <circle id="svg_19" fill="#333E48" r="23.021" cy="310.84" cx="310.736"/>
  <path id="svg_20" fill="#FFFFFF" d="m310.74,342.25c-17.321,0 -31.412,-14.091 -31.412,-31.412c0,-17.321 14.091,-31.412 31.412,-31.412c17.32,0 31.412,14.091 31.412,31.412c0,17.321 -14.092,31.412 -31.412,31.412zm0,-46.041c-8.067,0 -14.629,6.563 -14.629,14.629c0,8.067 6.563,14.629 14.629,14.629s14.629,-6.562 14.629,-14.629c0,-8.066 -6.563,-14.629 -14.629,-14.629z"/>
  <g id="svg_21">
   <path id="svg_22" fill="#333E48" d="m397.638,342.425c-9.723,0 -18.687,-4.88 -23.981,-13.056c-2.519,-3.89 -1.406,-9.086 2.484,-11.605c3.889,-2.519 9.085,-1.408 11.605,2.484c2.186,3.378 5.884,5.394 9.892,5.394s7.706,-2.016 9.892,-5.394c2.519,-3.891 7.713,-5.002 11.605,-2.484c3.89,2.519 5.002,7.715 2.484,11.605c-5.294,8.174 -14.258,13.056 -23.981,13.056z"/>
   <path id="svg_23" fill="#333E48" d="m397.638,342.425c-4.634,0 -8.392,-3.757 -8.392,-8.392l0,-48.627c0,-4.634 3.757,-8.392 8.392,-8.392s8.392,3.757 8.392,8.392l0,48.627c0,4.635 -3.758,8.392 -8.392,8.392z"/>
   <path id="svg_24" fill="#333E48" d="m412.256,307.374l-29.236,0c-4.634,0 -8.392,-3.757 -8.392,-8.392s3.757,-8.392 8.392,-8.392l29.236,0c4.634,0 8.392,3.757 8.392,8.392s-3.757,8.392 -8.392,8.392z"/>
  </g>
  <g id="svg_25"/>
  <g id="svg_26"/>
  <g id="svg_27"/>
  <g id="svg_28"/>
  <g id="svg_29"/>
  <g id="svg_30"/>
  <g id="svg_31"/>
  <g id="svg_32"/>
  <g id="svg_33"/>
  <g id="svg_34"/>
  <g id="svg_35"/>
  <g id="svg_36"/>
  <g id="svg_37"/>
  <g id="svg_38"/>
  <g id="svg_39"/>
 </g>
</svg>